<svg width="366" height="367" viewBox="0 0 366 367" fill="none" xmlns="http://www.w3.org/2000/svg">
<style>
  path { fill: black; }
  @media (prefers-color-scheme: dark) {
    path { fill: white; }
  }
</style>
<g clip-path="url(#clip0_2774_171)">
<path fill-rule="evenodd" clip-rule="evenodd" d="M259.554 38.2763L67.6388 38.2763C51.0362 38.2763 37.5771 51.7354 37.5771 68.338V299.06C37.5771 315.663 51.0362 329.122 67.6388 329.122L259.554 329.122V38.2763ZM67.6388 0.699219C30.2829 0.699219 0 30.9821 0 68.338V299.06C0 336.416 30.2829 366.699 67.6388 366.699H298.361C335.717 366.699 366 336.416 366 299.06V68.3381C366 30.9822 335.717 0.699219 298.361 0.699219H67.6388Z"/>
<path d="M151.995 290.421C137.323 290.421 124.175 288.039 112.552 283.276C100.928 278.512 91.5915 271.462 84.5412 262.125C77.6815 252.788 74.0611 241.546 73.68 228.398H125.699C126.462 235.83 129.034 241.546 133.417 245.547C137.799 249.358 143.516 251.264 150.566 251.264C157.807 251.264 163.523 249.644 167.715 246.405C171.907 242.975 174.003 238.307 174.003 232.4C174.003 227.445 172.288 223.349 168.858 220.109C165.619 216.87 161.522 214.202 156.568 212.106C151.804 210.01 144.945 207.629 135.989 204.961C123.032 200.959 112.456 196.958 104.263 192.956C96.0693 188.955 89.0191 183.048 83.1121 175.236C77.2052 167.423 74.2517 157.229 74.2517 144.653C74.2517 125.979 81.0161 111.402 94.545 100.922C108.074 90.2516 125.699 84.9162 147.422 84.9162C169.525 84.9162 187.341 90.2516 200.87 100.922C214.399 111.402 221.64 126.074 222.593 144.939H169.716C169.335 138.46 166.953 133.41 162.57 129.79C158.188 125.979 152.567 124.074 145.707 124.074C139.8 124.074 135.036 125.693 131.416 128.933C127.795 131.981 125.985 136.459 125.985 142.366C125.985 148.845 129.034 153.894 135.131 157.515C141.229 161.135 150.756 165.041 163.714 169.233C176.671 173.616 187.151 177.808 195.154 181.809C203.347 185.811 210.398 191.623 216.305 199.245C222.212 206.866 225.165 216.68 225.165 228.684C225.165 240.117 222.212 250.502 216.305 259.839C210.588 269.175 202.204 276.607 191.152 282.133C180.101 287.658 167.048 290.421 151.995 290.421Z"/>
</g>
<defs>
<clipPath id="clip0_2774_171">
<rect width="366" height="367" fill="white"/>
</clipPath>
</defs>
</svg>
